<?xml version="1.0" encoding="UTF-8"?>
<svg xmlns="http://www.w3.org/2000/svg" viewBox="0 0 840 115" width="100%" height="auto">
  <rect width="840" height="115" fill="white"/>
  <!-- Spirale dall'EPS (BBox 104x83), Y-flipped, scalata x1.3855 per riempire 148x115 -->
  <g transform="scale(1.3855)">
    <path d="M 32.121,45.465 C 32.461,45.727 32.781,45.992 33.086,46.266 C 33.168,46.418 33.254,46.574 33.336,46.727 C 33.285,46.605 33.238,46.488 33.195,46.367 C 38.488,51.227 38.441,58.039 38.395,64.23 C 38.355,70.035 38.32,75.289 42.691,77.867 C 46.887,79.574 51.086,81.293 55.285,83 C 37.324,73.312 47.363,52.5 33.031,45.855 C 32.289,43.223 33.344,41.168 34.332,39.254 C 35.355,37.262 36.309,35.414 35.066,33.223 C 35.648,35.633 34.219,37.371 32.93,38.941 C 31.793,40.324 30.762,41.582 31.312,43.051 C 31.805,43.953 32.305,44.852 32.801,45.75 C 32.578,45.652 32.352,45.555 32.121,45.465 Z M 28.262,41.199 C 28.469,41.535 28.66,41.875 28.832,42.211 C 28.855,42.383 28.879,42.551 28.898,42.723 C 28.895,42.594 28.895,42.465 28.898,42.344 C 31.914,48.391 29.574,54.359 27.449,59.777 C 25.457,64.855 23.656,69.457 26.625,73.191 C 29.73,76.105 32.836,79.02 35.953,81.941 C 29.371,74.281 30.633,66.535 31.801,59.359 C 32.852,52.898 33.828,46.898 28.926,41.844 C 29.168,39.293 30.785,37.848 32.293,36.496 C 33.867,35.09 35.324,33.789 34.977,31.445 C 34.406,35.793 28.398,35.656 28.363,38.809 C 28.5,39.766 28.633,40.719 28.762,41.676 C 28.602,41.516 28.434,41.355 28.262,41.199 Z M 38.844,48.66 C 38.434,48.504 38.012,48.359 37.57,48.23 C 37.84,48.23 38.102,48.238 38.363,48.254 C 37.523,47.547 36.688,46.84 35.852,46.137 C 34.746,44.883 35.293,43.246 35.895,41.438 C 36.578,39.387 37.332,37.117 35.84,34.941 C 37.906,36.648 37.668,38.844 37.406,41.219 C 37.156,43.496 36.891,45.938 38.633,48.27 C 55.395,49.422 53.363,73.898 74.891,76.676 C 70.078,76.57 65.254,76.48 60.43,76.379 C 49.414,74.527 52.762,54.164 38.996,48.719 C 39.082,48.82 39.172,48.918 39.266,49.016 C 39.125,48.898 38.984,48.777 38.844,48.66 Z M 26.48,37.414 C 27.066,43.715 23.012,48.152 19.332,52.188 C 15.875,55.973 12.742,59.402 14.086,63.68 C 15.828,67.289 17.578,70.895 19.32,74.5 C 16.137,65.57 19.848,59.203 23.289,53.301 C 26.391,47.984 29.266,43.047 26.684,36.961 C 28.844,32.527 34.535,34.125 35.488,29.867 C 33.52,33.484 28.297,31.344 27.215,34.098 C 27.008,34.988 26.801,35.879 26.594,36.762 C 26.504,36.559 26.41,36.352 26.305,36.145 C 26.379,36.535 26.434,36.918 26.473,37.297 C 26.438,37.434 26.406,37.57 26.375,37.703 C 26.41,37.605 26.445,37.508 26.48,37.414 Z M 44.043,48.891 C 44.531,48.852 45.004,48.832 45.473,48.832 C 45.656,48.898 45.84,48.961 46.023,49.027 C 45.891,48.965 45.766,48.898 45.641,48.832 C 53.766,48.914 58.883,54.68 63.531,59.914 C 67.895,64.828 71.844,69.273 77.473,68.129 C 82.297,66.387 87.121,64.648 91.957,62.906 C 80.148,65.781 72.527,60.195 65.469,55.023 C 59.113,50.363 53.211,46.039 45.109,48.527 C 39.773,45.164 42.57,38.145 37.262,36.363 C 39.578,37.953 39.691,40.5 39.797,42.797 C 39.887,44.82 39.969,46.652 41.539,47.469 C 42.637,47.852 43.738,48.23 44.84,48.613 C 44.574,48.699 44.312,48.789 44.043,48.891 Z M 6.305,51.121 C 6.844,42.414 22.938,43.344 26.031,32.207 C 25.961,32.281 25.887,32.363 25.816,32.449 C 25.902,32.324 25.984,32.199 26.07,32.074 C 26.156,31.75 26.23,31.414 26.293,31.07 C 26.312,31.273 26.328,31.477 26.34,31.672 C 26.816,30.969 27.297,30.266 27.773,29.559 C 28.652,28.598 29.969,28.887 31.426,29.207 C 33.074,29.57 34.898,29.973 36.465,28.637 C 35.312,30.387 33.59,30.375 31.723,30.367 C 29.934,30.359 28.016,30.352 26.348,31.891 C 26.578,38.109 22.391,41.473 17.879,45.094 C 12.871,49.117 7.465,53.457 7.258,62.371 C 6.941,58.629 6.621,54.875 6.305,51.121 Z M 52.289,46.418 C 60.395,43.395 67.68,47.172 74.293,50.602 C 80.496,53.816 86.113,56.73 91.273,53.453 C 95.402,49.879 99.535,46.316 103.664,42.746 C 93.031,50.094 83.336,47.453 74.355,45.004 C 66.262,42.797 58.746,40.75 51.652,46.316 C 48.43,45.676 46.805,43.422 45.293,41.32 C 43.715,39.129 42.25,37.102 39.219,37.227 C 44.68,38.535 43.703,46.168 47.707,46.625 C 48.941,46.582 50.176,46.547 51.41,46.508 C 51.184,46.691 50.957,46.883 50.734,47.082 C 51.195,46.859 51.652,46.664 52.109,46.488 C 52.328,46.48 52.543,46.473 52.758,46.465 C 52.598,46.453 52.441,46.438 52.289,46.418 Z M 28,26.602 C 27.82,26.891 27.637,27.168 27.445,27.434 C 27.336,27.508 27.23,27.582 27.125,27.656 C 27.207,27.613 27.293,27.57 27.375,27.527 C 20.895,36.234 7.102,30 3.711,37.453 C 2.719,40.855 1.742,44.258 0.75,47.648 C 6.805,32.926 23.762,39.012 27.766,27.352 C 29.754,26.555 31.438,27.207 33.004,27.816 C 34.637,28.453 36.141,29.039 37.742,27.898 C 35.914,28.543 34.445,27.578 33.121,26.703 C 31.957,25.934 30.902,25.238 29.809,25.781 C 29.148,26.242 28.488,26.699 27.832,27.16 C 27.891,26.977 27.949,26.793 28,26.602 Z M 48.496,40.828 C 46.668,38.973 44.645,36.922 41.496,37.34 C 44.449,36.055 46.672,37.512 49.078,39.086 C 51.633,40.762 54.395,42.57 58.461,41.355 L 53.512,43.438 C 51.566,43.941 50.105,42.461 48.496,40.828 Z M 43.793,36.59 C 46.762,34.977 49.555,36.242 52.074,37.387 C 54.297,38.398 56.312,39.312 58.051,38.07 L 62.18,34.109 C 58.602,36.867 55.172,36.121 51.992,35.434 C 49.004,34.785 46.242,34.188 43.793,36.59 Z M 40.391,33.359 C 41.48,33.16 42.227,33.836 42.898,34.449 C 43.488,34.988 44.027,35.477 44.691,35.27 C 45.105,35.07 45.512,34.871 45.922,34.676 C 45.875,34.77 45.828,34.863 45.785,34.961 C 45.906,34.824 46.027,34.691 46.152,34.562 C 46.23,34.527 46.309,34.488 46.387,34.449 C 46.328,34.473 46.266,34.492 46.207,34.512 C 48.5,32.254 51.543,32.434 54.312,32.598 C 56.906,32.75 59.254,32.891 60.508,30.992 C 61.371,29.16 62.238,27.316 63.09,25.484 C 58.352,33.293 49.281,28.32 45.977,34.57 C 44.785,34.832 43.895,34.312 43.066,33.828 C 42.199,33.324 41.398,32.855 40.391,33.359 Z M 44.074,33.18 C 43.176,32.824 42.18,32.434 41.176,33.051 C 41.984,32.172 42.957,32.328 44.008,32.5 C 45.023,32.664 46.109,32.84 47.195,32.109 C 48.105,24.652 58.984,26.137 60.723,16.598 C 60.574,18.75 60.418,20.898 60.258,23.051 C 59.18,27.91 50.18,25.957 47.414,31.945 C 47.453,31.914 47.496,31.879 47.535,31.844 C 47.488,31.898 47.438,31.953 47.387,32.008 C 47.301,32.195 47.223,32.391 47.148,32.598 C 47.156,32.469 47.168,32.348 47.18,32.227 C 46.844,32.586 46.508,32.941 46.172,33.301 C 45.59,33.773 44.871,33.488 44.074,33.18 Z M 31.004,23.266 C 30.754,23.457 30.504,23.637 30.25,23.801 C 30.129,23.828 30.004,23.859 29.879,23.891 C 29.973,23.879 30.066,23.867 30.156,23.859 C 25.707,26.688 20.891,25.359 16.512,24.152 C 12.406,23.02 8.691,21.996 6.031,24.609 C 4.016,27.262 2.016,29.91 0,32.562 C 5.402,26.832 11.512,27.18 17.176,27.5 C 22.281,27.789 27.023,28.055 30.551,23.84 C 32.555,23.809 33.805,24.949 34.977,26.012 C 36.195,27.117 37.324,28.145 39.117,27.68 C 37.297,27.633 36.332,26.289 35.465,25.074 C 34.703,24.008 34.012,23.039 32.871,23.152 C 32.133,23.336 31.406,23.516 30.672,23.695 C 30.785,23.559 30.895,23.414 31.004,23.266 Z M 44.766,31.465 C 43.738,31.457 42.598,31.449 41.836,32.449 C 42.754,30.125 45.832,31.539 47.453,29.223 C 46.543,25.551 48.609,23.02 50.84,20.289 C 53.316,17.258 55.988,13.984 54.977,8.645 C 55.637,10.84 56.309,13.039 56.969,15.234 C 57.348,17.777 55.27,19.434 52.973,21.266 C 50.527,23.219 47.836,25.367 47.605,28.988 C 47.637,28.938 47.668,28.883 47.695,28.828 C 47.664,28.91 47.633,28.988 47.602,29.066 C 47.59,29.277 47.586,29.496 47.594,29.719 C 47.555,29.594 47.52,29.473 47.488,29.352 C 47.293,29.832 47.094,30.312 46.898,30.797 C 46.496,31.48 45.672,31.473 44.766,31.465 Z M 42.27,31.594 C 42.984,29.184 46.363,29.797 46.672,28.023 C 46.68,27.477 46.695,26.93 46.707,26.375 C 46.781,26.48 46.863,26.586 46.945,26.691 C 46.859,26.48 46.781,26.27 46.711,26.062 C 46.715,25.961 46.715,25.859 46.719,25.758 C 46.707,25.832 46.695,25.902 46.684,25.973 C 45.527,22.281 47.387,19.117 49.074,16.242 C 50.656,13.547 52.09,11.109 50.746,8.727 C 49.242,6.801 47.754,4.867 46.25,2.945 C 49.281,7.863 47.875,12.133 46.57,16.086 C 45.395,19.648 44.305,22.957 46.621,26.258 C 45.875,29.172 42.301,28.938 42.27,31.594 Z M 42.383,30.594 C 42.273,29.18 43.234,28.324 44.105,27.551 C 44.871,26.871 45.566,26.25 45.387,25.371 C 45.184,24.816 44.984,24.258 44.781,23.699 C 44.898,23.777 45.023,23.852 45.148,23.926 C 44.977,23.746 44.816,23.562 44.664,23.375 C 44.633,23.285 44.602,23.195 44.566,23.105 C 44.582,23.176 44.598,23.242 44.613,23.309 C 42.062,20.09 42.699,16.242 43.273,12.746 C 43.816,9.461 44.309,6.492 42.062,4.641 C 39.844,3.297 37.617,1.957 35.398,0.613 C 40.289,4.344 40.516,9.117 40.73,13.543 C 40.922,17.527 41.102,21.227 44.66,23.621 C 44.852,25.176 44.07,26.242 43.34,27.238 C 42.578,28.273 41.875,29.234 42.383,30.594 Z M 42.648,25.863 C 42.078,26.961 41.445,28.18 42.098,29.547 C 41.078,28.395 41.41,27.172 41.77,25.852 C 42.117,24.582 42.484,23.223 41.703,21.75 C 32.32,19.602 35.672,5.922 23.734,2.422 L 31.891,3.891 C 37.961,5.914 34.242,17.137 41.535,21.457 C 41.5,21.398 41.457,21.336 41.414,21.273 C 41.48,21.352 41.547,21.426 41.609,21.504 C 41.832,21.629 42.062,21.75 42.305,21.867 C 42.148,21.84 42,21.812 41.852,21.781 C 42.266,22.258 42.676,22.73 43.09,23.211 C 43.605,24.016 43.148,24.891 42.648,25.863 Z M 41.414,28.613 C 40.246,27.508 40.41,26.055 40.559,24.746 C 40.691,23.594 40.809,22.547 39.992,21.945 C 39.406,21.625 38.809,21.312 38.219,20.996 C 38.375,20.973 38.535,20.945 38.695,20.91 C 38.414,20.891 38.141,20.855 37.875,20.812 C 37.781,20.762 37.688,20.711 37.594,20.66 C 37.66,20.707 37.723,20.754 37.785,20.797 C 33.195,20.02 30.816,16.301 28.656,12.922 C 26.629,9.75 24.793,6.879 21.504,7.02 C 18.613,7.574 15.723,8.121 12.844,8.68 C 19.781,8.117 23.59,11.961 27.121,15.52 C 30.301,18.727 33.25,21.707 38.059,21.02 C 40.785,23.398 38.57,27.133 41.414,28.613 Z M 36.434,21.879 C 38.652,22.492 37.422,26.727 40.391,27.953 C 37.012,27.566 37.773,23.02 34.168,21.695 C 29.652,24.203 25.586,22.375 21.203,20.402 C 16.34,18.211 11.09,15.848 4.414,19.055 C 7.078,17.406 9.727,15.758 12.391,14.105 C 15.605,12.711 18.523,14.863 21.746,17.238 C 25.18,19.77 28.957,22.555 33.809,21.578 C 33.727,21.555 33.641,21.535 33.555,21.516 C 33.672,21.527 33.789,21.543 33.906,21.559 C 34.188,21.5 34.473,21.43 34.758,21.344 C 34.613,21.438 34.465,21.527 34.316,21.609 C 35.023,21.699 35.73,21.785 36.434,21.879 Z M 36.434,21.879" fill="#000" fill-rule="evenodd"/>
  </g>
  <!-- Separatore verticale dx spirale -->
  <line x1="148" y1="5" x2="148" y2="110" stroke="#ccc" stroke-width="1"/>
  <!-- ANIMISTERIA TODESCATO bold -->
  <text x="162" y="50" font-family="'Arial Black',Arial,sans-serif" font-size="32" font-weight="900" fill="#000" letter-spacing="-0.5">ANIMISTERIA</text>
  <text x="162" y="88" font-family="'Arial Black',Arial,sans-serif" font-size="32" font-weight="900" fill="#000" letter-spacing="-0.5">TODESCATO</text>
  <!-- Separatore verticale dx nome -->
  <line x1="480" y1="10" x2="480" y2="105" stroke="#ddd" stroke-width="1"/>
  <!-- Blocco dati aziendali -->
  <text x="494" y="30" font-family="Arial,sans-serif" font-size="9.5" font-weight="bold" letter-spacing="2.5" fill="#000">ANIME IN SHELL MOULDING</text>
  <line x1="494" y1="36" x2="836" y2="36" stroke="#555" stroke-width="1"/>
  <text x="494" y="52" font-family="Arial,sans-serif" font-size="9" fill="#333">Via Luigi Galvani 44/46 - 36066 SANDRIGO (VI)</text>
  <text x="494" y="65" font-family="Arial,sans-serif" font-size="9" fill="#333">Tel: 0444 658208   Email: info@animisteriatodescato.it</text>
  <text x="494" y="78" font-family="Arial,sans-serif" font-size="9" fill="#333">PEC: animisteriatodescatosas@cgn.legalmail.it</text>
  <text x="494" y="91" font-family="Arial,sans-serif" font-size="9" fill="#333">P.I.: 03200610248   SDI: SUBM70N</text>
</svg>