<?xml version="1.0" encoding="UTF-8"?>
<svg xmlns="http://www.w3.org/2000/svg" viewBox="0 0 420 115" width="100%" height="auto">
  <rect width="840" height="115" fill="white"/>
  <g transform="scale(1.3333)">
    <path d="M 129,17.59 L 130.938,23.59 L 136.164,23.59 L 128.598,2.367 L 122.633,2.367 L 114.977,23.59 L 120.109,23.59 L 122.078,17.59 Z M 125.555,6.551 L 127.801,13.809 L 123.277,13.809 Z M 125.555,6.551" fill="#000" fill-rule="nonzero"/>
    <path d="M 157.879,23.59 L 157.879,2.367 L 153.078,2.367 L 153.078,11.809 C 153.078,13.379 153.109,15.777 153.234,17.992 L 144.684,2.367 L 138.504,2.367 L 138.504,23.59 L 143.332,23.59 L 143.332,14.363 C 143.332,12.824 143.301,10.641 143.145,8.395 L 151.449,23.59 Z M 157.879,23.59" fill="#000" fill-rule="nonzero"/>
    <path d="M 162.336,2.367 L 167.164,2.367 L 167.164,23.59 L 162.336,23.59 Z" fill="#000" fill-rule="nonzero"/>
    <path d="M 195.121,2.367 L 187.738,2.367 L 183.465,19.004 L 179.191,2.367 L 171.625,2.367 L 171.625,23.59 L 176.453,23.59 L 176.453,14.176 C 176.453,12.117 176.453,9.348 176.391,7.164 C 176.793,9.348 177.5,12.117 178.082,14.148 L 180.82,23.59 L 185.926,23.59 L 188.602,14.148 C 189.215,12.117 189.922,9.316 190.355,7.133 C 190.293,9.316 190.293,12.117 190.293,14.176 L 190.293,23.59 L 195.121,23.59 Z M 195.121,2.367" fill="#000" fill-rule="nonzero"/>
    <path d="M 199.578,2.367 L 204.41,2.367 L 204.41,23.59 L 199.578,23.59 Z" fill="#000" fill-rule="nonzero"/>
    <path d="M 216.094,1.938 C 211.973,1.938 208.312,4.242 208.312,8.211 C 208.312,12.27 211.082,13.777 215.633,14.914 C 218.523,15.594 219.508,16.605 219.508,18.082 C 219.508,19.527 218.125,20.453 216.371,20.453 C 214.434,20.453 212.742,19.406 212.312,17.223 L 207.453,17.223 C 207.82,21.805 211.266,24.02 216.465,24.02 C 220.707,24.02 224.551,21.805 224.551,17.684 C 224.551,14.332 222.523,12.117 217.848,11.008 C 214.434,10.211 213.359,9.348 213.359,7.75 C 213.359,6.211 214.434,5.504 215.941,5.504 C 217.973,5.504 219.078,6.766 219.324,8.734 L 224.184,8.734 C 223.723,4.891 221.383,1.938 216.094,1.938 Z M 216.094,1.938" fill="#000" fill-rule="nonzero"/>
    <path d="M 244.727,6.121 L 244.727,2.367 L 225.781,2.367 L 225.781,6.121 L 232.855,6.121 L 232.855,23.59 L 237.652,23.59 L 237.652,6.121 Z M 244.727,6.121" fill="#000" fill-rule="nonzero"/>
    <path d="M 262.84,19.805 L 251.922,19.805 L 251.922,14.824 L 261.824,14.824 L 261.824,11.07 L 251.922,11.07 L 251.922,6.121 L 262.535,6.121 L 262.535,2.367 L 247.094,2.367 L 247.094,23.59 L 262.84,23.59 Z M 262.84,19.805" fill="#000" fill-rule="nonzero"/>
    <path d="M 282.246,18.328 C 282,15.867 281.172,14.176 279.02,13.379 C 281.691,12.609 283.23,10.855 283.23,8.148 C 283.23,4.43 280.68,2.891 277.602,2.523 C 276.496,2.398 275.664,2.367 274.406,2.367 L 266.348,2.367 L 266.348,23.59 L 271.176,23.59 L 271.176,15.254 L 273.082,15.254 C 273.668,15.254 274.188,15.254 274.773,15.285 C 276.371,15.406 277.266,16.762 277.543,19.066 C 277.727,20.852 278.035,22.113 278.555,23.59 L 283.816,23.59 C 282.953,22.359 282.523,20.82 282.246,18.328 Z M 271.176,11.719 L 271.176,6.121 L 273.852,6.121 C 274.527,6.121 275.051,6.152 275.48,6.18 C 277.051,6.367 278.188,6.98 278.188,8.918 C 278.188,10.855 276.863,11.531 275.297,11.688 C 274.867,11.719 274.344,11.719 273.668,11.719 Z M 271.176,11.719" fill="#000" fill-rule="nonzero"/>
    <path d="M 286.828,2.367 L 291.656,2.367 L 291.656,23.59 L 286.828,23.59 Z" fill="#000" fill-rule="nonzero"/>
    <path d="M 307.836,17.59 L 309.773,23.59 L 315,23.59 L 307.434,2.367 L 301.469,2.367 L 293.809,23.59 L 298.945,23.59 L 300.914,17.59 Z M 304.391,6.551 L 306.637,13.809 L 302.113,13.809 Z M 304.391,6.551" fill="#000" fill-rule="nonzero"/>
    <path d="M 135.461,34.18 L 135.461,30.125 L 114.977,30.125 L 114.977,34.18 L 122.625,34.18 L 122.625,53.07 L 127.812,53.07 L 127.812,34.18 Z M 135.461,34.18" fill="#000" fill-rule="nonzero"/>
    <path d="M 147.832,29.66 C 140.715,29.66 136.293,34.312 136.293,41.598 C 136.293,48.848 140.715,53.535 147.832,53.535 C 154.914,53.535 159.336,48.848 159.336,41.598 C 159.336,34.312 154.914,29.66 147.832,29.66 Z M 147.832,49.676 C 144.008,49.676 141.68,46.719 141.68,41.598 C 141.68,36.441 144.008,33.516 147.832,33.516 C 151.621,33.516 153.949,36.441 153.949,41.598 C 153.949,46.719 151.621,49.676 147.832,49.676 Z M 147.832,49.676" fill="#000" fill-rule="nonzero"/>
    <path d="M 174.336,30.258 C 173.172,30.125 172.637,30.125 171.406,30.125 L 163.16,30.125 L 163.16,53.07 L 171.375,53.07 C 172.605,53.07 173.137,53.07 174.301,52.938 C 179.621,52.305 183.91,48.379 183.91,41.297 C 183.91,34.215 179.656,30.855 174.336,30.258 Z M 173.039,48.914 C 172.273,48.98 171.676,48.98 170.711,48.98 L 168.383,48.98 L 168.383,34.18 L 170.742,34.18 C 171.707,34.18 172.305,34.215 173.07,34.281 C 176.297,34.648 178.426,37.039 178.426,41.363 C 178.426,45.785 176.262,48.547 173.039,48.914 Z M 173.039,48.914" fill="#000" fill-rule="nonzero"/>
    <path d="M 204.762,48.98 L 192.957,48.98 L 192.957,43.594 L 203.664,43.594 L 203.664,39.535 L 192.957,39.535 L 192.957,34.18 L 204.43,34.18 L 204.43,30.125 L 187.734,30.125 L 187.734,53.07 L 204.762,53.07 Z M 204.762,48.98" fill="#000" fill-rule="nonzero"/>
    <path d="M 216.367,29.66 C 211.91,29.66 207.953,32.152 207.953,36.441 C 207.953,40.832 210.945,42.461 215.867,43.691 C 218.996,44.422 220.059,45.52 220.059,47.117 C 220.059,48.68 218.562,49.676 216.668,49.676 C 214.57,49.676 212.742,48.547 212.277,46.188 L 207.023,46.188 C 207.422,51.141 211.148,53.535 216.766,53.535 C 221.355,53.535 225.512,51.141 225.512,46.684 C 225.512,43.059 223.316,40.664 218.262,39.469 C 214.57,38.605 213.406,37.672 213.406,35.945 C 213.406,34.281 214.57,33.516 216.203,33.516 C 218.395,33.516 219.594,34.879 219.859,37.008 L 225.113,37.008 C 224.613,32.852 222.086,29.66 216.367,29.66 Z M 216.367,29.66" fill="#000" fill-rule="nonzero"/>
    <path d="M 239.18,29.66 C 232.863,29.66 227.941,34.016 227.941,41.73 C 227.941,49.246 232.598,53.535 238.879,53.535 C 244.699,53.535 248.656,50.508 249.191,45.32 L 249.223,44.988 L 244.004,44.988 L 243.934,45.32 C 243.402,48.047 241.773,49.676 239.082,49.676 C 235.953,49.676 233.426,47.184 233.426,41.43 C 233.426,36.344 235.789,33.516 239.113,33.516 C 241.875,33.516 243.504,34.945 244.035,37.605 L 244.102,37.938 L 249.324,37.938 L 249.289,37.605 C 248.824,33.082 245.531,29.66 239.18,29.66 Z M 239.18,29.66" fill="#000" fill-rule="nonzero"/>
    <path d="M 264.953,46.586 L 267.047,53.07 L 272.699,53.07 L 264.52,30.125 L 258.07,30.125 L 249.789,53.07 L 255.34,53.07 L 257.469,46.586 Z M 261.227,34.648 L 263.656,42.496 L 258.766,42.496 Z M 261.227,34.648" fill="#000" fill-rule="nonzero"/>
    <path d="M 291.125,34.18 L 291.125,30.125 L 270.641,30.125 L 270.641,34.18 L 278.289,34.18 L 278.289,53.07 L 283.477,53.07 L 283.477,34.18 Z M 291.125,34.18" fill="#000" fill-rule="nonzero"/>
    <path d="M 303.492,29.66 C 296.379,29.66 291.953,34.312 291.953,41.598 C 291.953,48.848 296.379,53.535 303.492,53.535 C 310.578,53.535 315,48.848 315,41.598 C 315,34.312 310.578,29.66 303.492,29.66 Z M 303.492,49.676 C 299.668,49.676 297.344,46.719 297.344,41.598 C 297.344,36.441 299.668,33.516 303.492,33.516 C 307.285,33.516 309.613,36.441 309.613,41.598 C 309.613,46.719 307.285,49.676 303.492,49.676 Z M 303.492,49.676" fill="#000" fill-rule="nonzero"/>
    <g transform="translate(33,2) scale(0.622)">
    <path d="M 32.121,37.535 C 32.461,37.273 32.781,37.008 33.086,36.734 C 33.168,36.582 33.254,36.426 33.336,36.273 C 33.285,36.395 33.238,36.512 33.195,36.633 C 38.488,31.773 38.441,24.961 38.395,18.77 C 38.355,12.965 38.32,7.711 42.691,5.133 C 46.887,3.426 51.086,1.707 55.285,0 C 37.324,9.688 47.363,30.5 33.031,37.145 C 32.289,39.777 33.344,41.832 34.332,43.746 C 35.355,45.738 36.309,47.586 35.066,49.777 C 35.648,47.367 34.219,45.629 32.93,44.059 C 31.793,42.676 30.762,41.418 31.312,39.949 C 31.805,39.047 32.305,38.148 32.801,37.25 C 32.578,37.348 32.352,37.445 32.121,37.535 Z M 28.262,41.801 C 28.469,41.465 28.66,41.125 28.832,40.789 C 28.855,40.617 28.879,40.449 28.898,40.277 C 28.895,40.406 28.895,40.535 28.898,40.656 C 31.914,34.609 29.574,28.641 27.449,23.223 C 25.457,18.145 23.656,13.543 26.625,9.809 C 29.73,6.895 32.836,3.98 35.953,1.059 C 29.371,8.719 30.633,16.465 31.801,23.641 C 32.852,30.102 33.828,36.102 28.926,41.156 C 29.168,43.707 30.785,45.152 32.293,46.504 C 33.867,47.91 35.324,49.211 34.977,51.555 C 34.406,47.207 28.398,47.344 28.363,44.191 C 28.5,43.234 28.633,42.281 28.762,41.324 C 28.602,41.484 28.434,41.645 28.262,41.801 Z M 38.844,34.34 C 38.434,34.496 38.012,34.641 37.57,34.77 C 37.84,34.77 38.102,34.762 38.363,34.746 C 37.523,35.453 36.688,36.16 35.852,36.863 C 34.746,38.117 35.293,39.754 35.895,41.562 C 36.578,43.613 37.332,45.883 35.84,48.059 C 37.906,46.352 37.668,44.156 37.406,41.781 C 37.156,39.504 36.891,37.062 38.633,34.73 C 55.395,33.578 53.363,9.102 74.891,6.324 C 70.078,6.43 65.254,6.52 60.43,6.621 C 49.414,8.473 52.762,28.836 38.996,34.281 C 39.082,34.18 39.172,34.082 39.266,33.984 C 39.125,34.102 38.984,34.223 38.844,34.34 Z M 26.48,45.586 C 27.066,39.285 23.012,34.848 19.332,30.812 C 15.875,27.027 12.742,23.598 14.086,19.32 C 15.828,15.711 17.578,12.105 19.32,8.5 C 16.137,17.43 19.848,23.797 23.289,29.699 C 26.391,35.016 29.266,39.953 26.684,46.039 C 28.844,50.473 34.535,48.875 35.488,53.133 C 33.52,49.516 28.297,51.656 27.215,48.902 C 27.008,48.012 26.801,47.121 26.594,46.238 C 26.504,46.441 26.41,46.648 26.305,46.855 C 26.379,46.465 26.434,46.082 26.473,45.703 C 26.438,45.566 26.406,45.43 26.375,45.297 C 26.41,45.395 26.445,45.492 26.48,45.586 Z M 44.043,34.109 C 44.531,34.148 45.004,34.168 45.473,34.168 C 45.656,34.102 45.84,34.039 46.023,33.973 C 45.891,34.035 45.766,34.102 45.641,34.168 C 53.766,34.086 58.883,28.32 63.531,23.086 C 67.895,18.172 71.844,13.727 77.473,14.871 C 82.297,16.613 87.121,18.352 91.957,20.094 C 80.148,17.219 72.527,22.805 65.469,27.977 C 59.113,32.637 53.211,36.961 45.109,34.473 C 39.773,37.836 42.57,44.855 37.262,46.637 C 39.578,45.047 39.691,42.5 39.797,40.203 C 39.887,38.18 39.969,36.348 41.539,35.531 C 42.637,35.148 43.738,34.77 44.84,34.387 C 44.574,34.301 44.312,34.211 44.043,34.109 Z M 6.305,31.879 C 6.844,40.586 22.938,39.656 26.031,50.793 C 25.961,50.719 25.887,50.637 25.816,50.551 C 25.902,50.676 25.984,50.801 26.07,50.926 C 26.156,51.25 26.23,51.586 26.293,51.93 C 26.312,51.727 26.328,51.523 26.34,51.328 C 26.816,52.031 27.297,52.734 27.773,53.441 C 28.652,54.402 29.969,54.113 31.426,53.793 C 33.074,53.43 34.898,53.027 36.465,54.363 C 35.312,52.613 33.59,52.625 31.723,52.633 C 29.934,52.641 28.016,52.648 26.348,51.109 C 26.578,44.891 22.391,41.527 17.879,37.906 C 12.871,33.883 7.465,29.543 7.258,20.629 C 6.941,24.371 6.621,28.125 6.305,31.879 Z M 52.289,36.582 C 60.395,39.605 67.68,35.828 74.293,32.398 C 80.496,29.184 86.113,26.27 91.273,29.547 C 95.402,33.121 99.535,36.684 103.664,40.254 C 93.031,32.906 83.336,35.547 74.355,37.996 C 66.262,40.203 58.746,42.25 51.652,36.684 C 48.43,37.324 46.805,39.578 45.293,41.68 C 43.715,43.871 42.25,45.898 39.219,45.773 C 44.68,44.465 43.703,36.832 47.707,36.375 C 48.941,36.418 50.176,36.453 51.41,36.492 C 51.184,36.309 50.957,36.117 50.734,35.918 C 51.195,36.141 51.652,36.336 52.109,36.512 C 52.328,36.52 52.543,36.527 52.758,36.535 C 52.598,36.547 52.441,36.562 52.289,36.582 Z M 28,56.398 C 27.82,56.109 27.637,55.832 27.445,55.566 C 27.336,55.492 27.23,55.418 27.125,55.344 C 27.207,55.387 27.293,55.43 27.375,55.473 C 20.895,46.766 7.102,53 3.711,45.547 C 2.719,42.145 1.742,38.742 0.75,35.352 C 6.805,50.074 23.762,43.988 27.766,55.648 C 29.754,56.445 31.438,55.793 33.004,55.184 C 34.637,54.547 36.141,53.961 37.742,55.102 C 35.914,54.457 34.445,55.422 33.121,56.297 C 31.957,57.066 30.902,57.762 29.809,57.219 C 29.148,56.758 28.488,56.301 27.832,55.84 C 27.891,56.023 27.949,56.207 28,56.398 Z M 48.496,42.172 C 46.668,44.027 44.645,46.078 41.496,45.66 C 44.449,46.945 46.672,45.488 49.078,43.914 C 51.633,42.238 54.395,40.43 58.461,41.645 L 53.512,39.562 C 51.566,39.059 50.105,40.539 48.496,42.172 Z M 43.793,46.41 C 46.762,48.023 49.555,46.758 52.074,45.613 C 54.297,44.602 56.312,43.688 58.051,44.93 L 62.18,48.891 C 58.602,46.133 55.172,46.879 51.992,47.566 C 49.004,48.215 46.242,48.812 43.793,46.41 Z M 40.391,49.641 C 41.48,49.84 42.227,49.164 42.898,48.551 C 43.488,48.012 44.027,47.523 44.691,47.73 C 45.105,47.93 45.512,48.129 45.922,48.324 C 45.875,48.23 45.828,48.137 45.785,48.039 C 45.906,48.176 46.027,48.309 46.152,48.438 C 46.23,48.473 46.309,48.512 46.387,48.551 C 46.328,48.527 46.266,48.508 46.207,48.488 C 48.5,50.746 51.543,50.566 54.312,50.402 C 56.906,50.25 59.254,50.109 60.508,52.008 C 61.371,53.84 62.238,55.684 63.09,57.516 C 58.352,49.707 49.281,54.68 45.977,48.43 C 44.785,48.168 43.895,48.688 43.066,49.172 C 42.199,49.676 41.398,50.145 40.391,49.641 Z M 44.074,49.82 C 43.176,50.176 42.18,50.566 41.176,49.949 C 41.984,50.828 42.957,50.672 44.008,50.5 C 45.023,50.336 46.109,50.16 47.195,50.891 C 48.105,58.348 58.984,56.863 60.723,66.402 C 60.574,64.25 60.418,62.102 60.258,59.949 C 59.18,55.09 50.18,57.043 47.414,51.055 C 47.453,51.086 47.496,51.121 47.535,51.156 C 47.488,51.102 47.438,51.047 47.387,50.992 C 47.301,50.805 47.223,50.609 47.148,50.402 C 47.156,50.531 47.168,50.652 47.18,50.773 C 46.844,50.414 46.508,50.059 46.172,49.699 C 45.59,49.227 44.871,49.512 44.074,49.82 Z M 31.004,59.734 C 30.754,59.543 30.504,59.363 30.25,59.199 C 30.129,59.172 30.004,59.141 29.879,59.109 C 29.973,59.121 30.066,59.133 30.156,59.141 C 25.707,56.312 20.891,57.641 16.512,58.848 C 12.406,59.98 8.691,61.004 6.031,58.391 C 4.016,55.738 2.016,53.09 0,50.438 C 5.402,56.168 11.512,55.82 17.176,55.5 C 22.281,55.211 27.023,54.945 30.551,59.16 C 32.555,59.191 33.805,58.051 34.977,56.988 C 36.195,55.883 37.324,54.855 39.117,55.32 C 37.297,55.367 36.332,56.711 35.465,57.926 C 34.703,58.992 34.012,59.961 32.871,59.848 C 32.133,59.664 31.406,59.484 30.672,59.305 C 30.785,59.441 30.895,59.586 31.004,59.734 Z M 44.766,51.535 C 43.738,51.543 42.598,51.551 41.836,50.551 C 42.754,52.875 45.832,51.461 47.453,53.777 C 46.543,57.449 48.609,59.98 50.84,62.711 C 53.316,65.742 55.988,69.016 54.977,74.355 C 55.637,72.16 56.309,69.961 56.969,67.766 C 57.348,65.223 55.27,63.566 52.973,61.734 C 50.527,59.781 47.836,57.633 47.605,54.012 C 47.637,54.062 47.668,54.117 47.695,54.172 C 47.664,54.09 47.633,54.012 47.602,53.934 C 47.59,53.723 47.586,53.504 47.594,53.281 C 47.555,53.406 47.52,53.527 47.488,53.648 C 47.293,53.168 47.094,52.688 46.898,52.203 C 46.496,51.52 45.672,51.527 44.766,51.535 Z M 42.27,51.406 C 42.984,53.816 46.363,53.203 46.672,54.977 C 46.68,55.523 46.695,56.07 46.707,56.625 C 46.781,56.52 46.863,56.414 46.945,56.309 C 46.859,56.52 46.781,56.73 46.711,56.938 C 46.715,57.039 46.715,57.141 46.719,57.242 C 46.707,57.168 46.695,57.098 46.684,57.027 C 45.527,60.719 47.387,63.883 49.074,66.758 C 50.656,69.453 52.09,71.891 50.746,74.273 C 49.242,76.199 47.754,78.133 46.25,80.055 C 49.281,75.137 47.875,70.867 46.57,66.914 C 45.395,63.352 44.305,60.043 46.621,56.742 C 45.875,53.828 42.301,54.062 42.27,51.406 Z M 42.383,52.406 C 42.273,53.82 43.234,54.676 44.105,55.449 C 44.871,56.129 45.566,56.75 45.387,57.629 C 45.184,58.184 44.984,58.742 44.781,59.301 C 44.898,59.223 45.023,59.148 45.148,59.074 C 44.977,59.254 44.816,59.438 44.664,59.625 C 44.633,59.715 44.602,59.805 44.566,59.895 C 44.582,59.824 44.598,59.758 44.613,59.691 C 42.062,62.91 42.699,66.758 43.273,70.254 C 43.816,73.539 44.309,76.508 42.062,78.359 C 39.844,79.703 37.617,81.043 35.398,82.387 C 40.289,78.656 40.516,73.883 40.73,69.457 C 40.922,65.473 41.102,61.773 44.66,59.379 C 44.852,57.824 44.07,56.758 43.34,55.762 C 42.578,54.727 41.875,53.766 42.383,52.406 Z M 42.648,57.137 C 42.078,56.039 41.445,54.82 42.098,53.453 C 41.078,54.605 41.41,55.828 41.77,57.148 C 42.117,58.418 42.484,59.777 41.703,61.25 C 32.32,63.398 35.672,77.078 23.734,80.578 L 31.891,79.109 C 37.961,77.086 34.242,65.863 41.535,61.543 C 41.5,61.602 41.457,61.664 41.414,61.727 C 41.48,61.648 41.547,61.574 41.609,61.496 C 41.832,61.371 42.062,61.25 42.305,61.133 C 42.148,61.16 42,61.188 41.852,61.219 C 42.266,60.742 42.676,60.27 43.09,59.789 C 43.605,58.984 43.148,58.109 42.648,57.137 Z M 41.414,54.387 C 40.246,55.492 40.41,56.945 40.559,58.254 C 40.691,59.406 40.809,60.453 39.992,61.055 C 39.406,61.375 38.809,61.688 38.219,62.004 C 38.375,62.027 38.535,62.055 38.695,62.09 C 38.414,62.109 38.141,62.145 37.875,62.188 C 37.781,62.238 37.688,62.289 37.594,62.34 C 37.66,62.293 37.723,62.246 37.785,62.203 C 33.195,62.98 30.816,66.699 28.656,70.078 C 26.629,73.25 24.793,76.121 21.504,75.98 C 18.613,75.426 15.723,74.879 12.844,74.32 C 19.781,74.883 23.59,71.039 27.121,67.48 C 30.301,64.273 33.25,61.293 38.059,61.98 C 40.785,59.602 38.57,55.867 41.414,54.387 Z M 36.434,61.121 C 38.652,60.508 37.422,56.273 40.391,55.047 C 37.012,55.434 37.773,59.98 34.168,61.305 C 29.652,58.797 25.586,60.625 21.203,62.598 C 16.34,64.789 11.09,67.152 4.414,63.945 C 7.078,65.594 9.727,67.242 12.391,68.895 C 15.605,70.289 18.523,68.137 21.746,65.762 C 25.18,63.23 28.957,60.445 33.809,61.422 C 33.727,61.445 33.641,61.465 33.555,61.484 C 33.672,61.473 33.789,61.457 33.906,61.441 C 34.188,61.5 34.473,61.57 34.758,61.656 C 34.613,61.562 34.465,61.473 34.316,61.391 C 35.023,61.301 35.73,61.215 36.434,61.121 Z M 36.434,61.121" fill="#000" fill-rule="evenodd"/>
    </g>
  </g>
</svg>