<svg xmlns="http://www.w3.org/2000/svg" viewBox="0 0 840 115" width="840" height="115">
  <rect width="840" height="115" fill="white"/>
  <!-- Spiral icon: EPS bbox 104x83, scaled 1.32 to get ~137x110, centered vertically -->
  <g transform="translate(0,3) scale(1.32)">
    <path d="M 32.164 45.414 C 32.504 8.09 32.824 8.355 33.129 8.629 C 33.215 8.785 33.297 8.937 33.383 9.09 C 33.332 8.973 33.285 8.852 33.242 8.73 C 38.539 13.598 38.492 20.422 38.449 26.617 C 38.406 32.43 38.371 37.691 42.75 40.277 C 46.953 41.984 51.156 43.703 55.359 45.414 C 37.375 35.711 47.43 14.871 33.078 8.219 C 32.332 5.582 33.391 3.523 34.379 1.609 C 35.406 -0.391 36.355 -2.234 35.113 -4.434 C 35.695 -2.016 34.266 -0.277 32.977 1.297 C 31.836 2.684 30.805 3.937 31.355 5.41 C 31.848 6.316 32.348 7.211 32.844 8.113 C 32.625 8.016 32.398 7.918 32.164 7.828 Z M 28.301 3.555 C 28.508 -37.965 28.699 -37.629 28.871 -37.289 C 28.895 -37.117 28.918 -36.949 28.938 -36.777 C 28.938 -36.906 28.934 -37.035 28.938 -37.16 C 31.961 -31.101 29.617 -25.125 27.488 -19.699 C 25.492 -14.613 23.688 -10.007 26.66 -6.265 C 29.77 -3.351 32.883 -0.433 36.004 2.496 C 29.414 -5.175 30.676 -12.933 31.844 -20.117 C 32.898 -26.59 33.875 -32.597 28.965 -37.656 C 29.207 -40.215 30.824 -41.66 32.336 -43.011 C 33.914 -44.418 35.371 -45.722 35.023 -48.07 C 34.453 -43.715 28.438 -43.851 28.402 -40.699 C 28.539 -39.738 28.672 -38.785 28.801 -37.828 C 28.641 -37.988 28.473 -38.148 28.301 -38.304 Z M 38.898 -30.832 C 38.488 -65.375 38.062 -65.52 37.621 -65.652 C 37.891 -65.648 38.156 -65.641 38.414 -65.625 C 37.578 -66.332 36.738 -67.043 35.902 -67.746 C 34.797 -69 35.34 -70.641 35.945 -72.453 C 36.629 -74.504 37.387 -76.777 35.891 -78.957 C 37.961 -77.246 37.719 -75.047 37.457 -72.672 C 37.207 -70.391 36.938 -67.945 38.688 -65.609 C 55.473 -64.457 53.438 -39.945 74.992 -37.168 C 70.172 -37.27 65.34 -37.359 60.512 -37.465 C 49.484 -39.316 52.832 -59.707 39.051 -65.16 C 39.137 -65.059 39.227 -64.961 39.32 -64.863 C 39.18 -64.98 39.039 -65.102 38.898 -65.219 Z M 26.52 -76.48 C 27.102 -115.816 23.043 -111.375 19.359 -107.335 C 15.895 -103.546 12.762 -100.113 14.105 -95.828 C 15.848 -92.214 17.602 -88.601 19.348 -84.992 C 16.16 -93.933 19.875 -100.312 23.32 -106.222 C 26.426 -111.546 29.305 -116.488 26.719 -122.582 C 28.883 -127.023 34.582 -125.421 35.535 -129.687 C 33.566 -126.066 28.336 -128.207 27.254 -125.449 C 27.043 -124.558 26.84 -123.668 26.633 -122.781 C 26.543 -122.984 26.445 -123.191 26.34 -123.398 C 26.414 -123.007 26.469 -122.625 26.508 -122.246 C 26.477 -122.109 26.441 -121.972 26.41 -121.835 C 26.445 -121.937 26.48 -122.035 26.52 -122.128 Z M 44.105 -110.636 C 44.59 -144.831 45.066 -144.851 45.535 -144.851 C 45.719 -144.784 45.902 -144.722 46.086 -144.656 C 45.953 -144.718 45.828 -144.784 45.703 -144.851 C 53.836 -144.769 58.965 -138.995 63.617 -133.753 C 67.984 -128.831 71.941 -124.378 77.578 -125.527 C 82.41 -127.269 87.238 -129.015 92.082 -130.757 C 80.258 -127.878 72.629 -133.472 65.559 -138.652 C 59.191 -143.316 53.281 -147.648 45.172 -145.156 C 39.828 -148.523 42.629 -155.55 37.312 -157.339 C 39.633 -155.745 39.746 -153.195 39.852 -150.894 C 39.941 -148.866 40.023 -147.034 41.598 -146.218 C 42.695 -145.831 43.801 -145.452 44.898 -145.07 C 44.637 -144.988 44.371 -144.894 44.105 -144.792 Z M 6.312 -142.562 C 6.852 -183.203 22.969 -182.273 26.07 -193.425 C 25.996 -193.347 25.922 -193.269 25.852 -193.183 C 25.938 -193.308 26.02 -193.433 26.105 -193.558 C 26.191 -193.882 26.266 -194.218 26.332 -194.562 C 26.352 -194.359 26.363 -194.156 26.375 -193.96 C 26.855 -194.664 27.336 -195.367 27.812 -196.078 C 28.691 -197.039 30.012 -196.75 31.469 -196.429 C 33.121 -196.066 34.949 -195.664 36.516 -197 C 35.363 -195.25 33.637 -195.257 31.766 -195.265 C 29.977 -195.273 28.055 -195.285 26.387 -193.742 C 26.617 -187.515 22.422 -184.148 17.902 -180.519 C 12.887 -176.492 7.473 -172.144 7.27 -163.218 C 6.949 -166.968 6.633 -170.726 6.312 -174.488 Z M 52.363 -179.195 C 60.477 -218.855 67.77 -215.074 74.395 -211.636 C 80.605 -208.418 86.23 -205.5 91.398 -208.785 C 95.535 -212.363 99.672 -215.929 103.805 -219.504 C 93.16 -212.148 83.449 -214.793 74.457 -217.242 C 66.352 -219.453 58.828 -221.504 51.723 -215.929 C 48.496 -216.57 46.871 -218.828 45.355 -220.933 C 43.773 -223.125 42.309 -225.156 39.273 -225.031 C 44.742 -223.722 43.762 -216.074 47.773 -215.621 C 49.008 -215.66 50.242 -215.699 51.48 -215.734 C 51.254 -215.554 51.027 -215.363 50.805 -215.164 C 51.266 -215.386 51.727 -215.582 52.18 -215.757 C 52.398 -215.765 52.613 -215.773 52.832 -215.781 C 52.672 -215.793 52.516 -215.808 52.363 -215.828 Z M 28.039 -235.672 C 27.859 -291.856 27.676 -291.578 27.48 -291.317 C 27.375 -291.238 27.27 -291.164 27.16 -291.09 C 27.246 -291.137 27.328 -291.18 27.41 -291.219 C 20.926 -282.5 7.109 -288.742 3.715 -281.281 C 2.723 -277.875 1.742 -274.465 0.754 -271.07 C 6.812 -285.817 23.793 -279.719 27.805 -291.395 C 29.793 -292.195 31.48 -291.539 33.051 -290.93 C 34.684 -290.297 36.191 -289.707 37.793 -290.852 C 35.961 -290.203 34.492 -291.172 33.168 -292.047 C 32 -292.817 30.945 -293.512 29.852 -292.969 C 29.188 -292.508 28.527 -292.047 27.871 -291.586 C 27.93 -291.77 27.984 -291.957 28.039 -292.149 Z M 48.562 -277.902 C 46.73 -321.988 44.707 -324.043 41.551 -323.625 C 44.512 -324.91 46.738 -323.453 49.145 -321.875 C 51.703 -320.199 54.469 -318.386 58.539 -319.601 L 53.582 -317.515 C 51.637 -356.628 50.176 -358.109 48.562 -359.745 Z M 43.852 -363.988 C 46.824 -412.078 49.621 -410.808 52.148 -409.664 C 54.375 -408.652 56.391 -407.738 58.129 -408.98 L 62.266 -412.945 C 58.684 -459.144 55.246 -459.886 52.062 -460.578 C 49.07 -461.226 46.305 -461.828 43.852 -459.418 Z M 40.445 -462.656 C 41.539 -512.566 42.281 -511.886 42.957 -511.273 C 43.551 -510.734 44.086 -510.242 44.754 -510.453 C 45.168 -510.652 45.574 -510.847 45.988 -511.047 C 45.938 -510.953 45.891 -510.859 45.848 -510.758 C 45.969 -510.898 46.09 -511.031 46.215 -511.156 C 46.293 -511.195 46.371 -511.234 46.449 -511.273 C 46.391 -511.25 46.328 -511.23 46.27 -511.211 C 48.566 -513.472 51.617 -513.293 54.387 -513.129 C 56.984 -512.972 59.336 -512.836 60.59 -514.734 C 61.457 -516.57 62.32 -518.414 63.176 -520.25 C 58.43 -512.433 49.352 -517.41 46.043 -511.152 C 44.848 -510.89 43.957 -511.41 43.125 -511.894 C 42.258 -512.398 41.457 -512.867 40.445 -512.367 Z M 44.133 -512.547 C 43.234 -562.789 42.238 -563.18 41.234 -562.563 C 42.043 -563.445 43.016 -563.289 44.07 -563.117 C 45.082 -562.953 46.172 -562.774 47.258 -563.508 C 48.172 -570.973 59.066 -569.488 60.809 -579.039 C 60.66 -576.887 60.5 -574.731 60.34 -572.578 C 59.262 -567.711 50.25 -569.668 47.477 -563.668 C 47.52 -563.703 47.562 -563.738 47.602 -563.774 C 47.551 -563.719 47.5 -563.664 47.453 -563.609 C 47.367 -563.422 47.285 -563.227 47.215 -563.02 C 47.223 -563.145 47.234 -563.27 47.246 -563.391 C 46.91 -563.031 46.57 -562.676 46.234 -562.313 C 45.652 -561.844 44.93 -562.125 44.133 -562.438 Z M 31.047 -572.363 C 30.797 -631.988 30.547 -631.808 30.293 -631.644 C 30.168 -631.613 30.043 -631.582 29.918 -631.551 C 30.012 -631.566 30.105 -631.574 30.195 -631.582 C 25.742 -628.754 20.918 -630.082 16.535 -631.289 C 12.426 -632.425 8.703 -633.449 6.039 -630.836 C 4.023 -628.179 2.016 -625.523 0 -622.871 C 5.41 -628.609 11.527 -628.261 17.199 -627.941 C 22.312 -627.652 27.059 -627.383 30.594 -631.605 C 32.598 -631.633 33.852 -630.496 35.023 -629.429 C 36.246 -628.32 37.375 -627.293 39.172 -627.758 C 37.348 -627.808 36.383 -629.152 35.516 -630.367 C 34.75 -631.437 34.059 -632.406 32.914 -632.293 C 32.18 -632.109 31.449 -631.929 30.715 -631.75 C 30.828 -631.886 30.938 -632.031 31.047 -632.179 Z M 44.828 -623.968 C 43.797 -675.581 42.656 -675.589 41.895 -674.589 C 42.812 -676.917 45.895 -675.499 47.52 -677.82 C 46.605 -681.495 48.68 -684.03 50.91 -686.765 C 53.387 -689.8 56.062 -693.077 55.055 -698.425 C 55.715 -696.226 56.387 -694.027 57.047 -691.827 C 57.426 -689.28 55.344 -687.62 53.047 -685.788 C 50.598 -683.831 47.902 -681.683 47.672 -678.054 C 47.703 -678.105 47.73 -678.159 47.762 -678.214 C 47.73 -678.132 47.699 -678.054 47.668 -677.976 C 47.656 -677.765 47.652 -677.546 47.66 -677.323 C 47.621 -677.448 47.586 -677.57 47.551 -677.691 C 47.355 -677.21 47.156 -676.73 46.965 -676.241 C 46.559 -675.558 45.734 -675.566 44.828 -675.573 Z M 42.328 -675.445 C 43.043 -729.336 46.43 -728.722 46.734 -730.5 C 46.746 -731.047 46.758 -731.593 46.77 -732.144 C 46.848 -732.043 46.926 -731.937 47.008 -731.832 C 46.922 -732.043 46.844 -732.254 46.777 -732.461 C 46.777 -732.562 46.781 -732.664 46.781 -732.765 C 46.773 -732.691 46.762 -732.621 46.75 -732.55 C 45.59 -736.25 47.449 -739.418 49.141 -742.297 C 50.727 -744.992 52.16 -747.437 50.816 -749.82 C 49.312 -751.746 47.816 -753.683 46.312 -755.609 C 49.352 -750.683 47.941 -746.41 46.637 -742.453 C 45.457 -738.883 44.367 -735.57 46.688 -732.265 C 45.941 -729.347 42.359 -729.578 42.328 -726.922 Z M 42.441 -727.922 C 42.332 -781.817 43.297 -782.672 44.164 -783.445 C 44.934 -784.129 45.629 -784.746 45.449 -785.629 C 45.246 -786.184 45.047 -786.746 44.844 -787.305 C 44.961 -787.227 45.082 -787.152 45.211 -787.078 C 45.035 -787.258 44.875 -787.442 44.727 -787.629 C 44.691 -787.719 44.66 -787.809 44.629 -787.899 C 44.645 -787.828 44.66 -787.762 44.672 -787.695 C 42.117 -790.918 42.758 -794.774 43.336 -798.274 C 43.879 -801.559 44.371 -804.535 42.121 -806.387 C 39.898 -807.734 37.668 -809.078 35.445 -810.422 C 40.344 -806.688 40.574 -801.906 40.785 -797.477 C 40.98 -793.484 41.156 -789.777 44.723 -787.383 C 44.914 -785.828 44.129 -784.758 43.398 -783.762 C 42.637 -782.723 41.934 -781.758 42.441 -780.399 Z M 42.707 -785.137 C 42.133 -841.25 41.504 -840.032 42.156 -838.664 C 41.133 -839.817 41.469 -841.043 41.828 -842.364 C 42.172 -843.633 42.543 -844.996 41.762 -846.473 C 32.367 -848.621 35.723 -862.321 23.766 -865.825 L 31.938 -864.356 C 38.012 -941.547 34.289 -930.309 41.594 -925.981 C 41.555 -926.044 41.516 -926.106 41.473 -926.165 C 41.539 -926.09 41.602 -926.012 41.668 -925.938 C 41.891 -925.809 42.121 -925.688 42.359 -925.575 C 42.207 -925.598 42.059 -925.626 41.91 -925.657 C 42.32 -925.18 42.734 -924.708 43.148 -924.227 C 43.664 -923.422 43.211 -922.544 42.707 -921.571 Z M 41.473 -918.817 C 40.305 -974.387 40.469 -975.84 40.617 -977.153 C 40.746 -978.305 40.863 -979.352 40.047 -979.954 C 39.457 -980.274 38.863 -980.587 38.27 -980.903 C 38.43 -980.93 38.586 -980.958 38.75 -980.993 C 38.469 -981.012 38.195 -981.047 37.926 -981.09 C 37.832 -981.141 37.738 -981.192 37.645 -981.243 C 37.711 -981.196 37.773 -981.149 37.836 -981.102 C 33.242 -981.883 30.859 -985.606 28.695 -988.993 C 26.664 -992.169 24.828 -995.04 21.535 -994.903 C 18.641 -994.344 15.746 -993.797 12.863 -993.239 C 19.809 -993.801 23.625 -989.954 27.156 -986.391 C 30.34 -983.176 33.297 -980.196 38.113 -980.879 C 40.84 -978.501 38.625 -974.762 41.473 -973.278 Z M 36.48 -980.024 C 38.703 -1040.614 37.473 -1036.376 40.445 -1035.145 C 37.059 -1035.536 37.824 -1040.086 34.215 -1041.411 C 29.695 -1038.899 25.621 -1040.735 21.23 -1042.708 C 16.363 -1044.899 11.105 -1047.266 4.422 -1044.055 C 7.086 -1045.708 9.742 -1047.36 12.406 -1049.012 C 15.629 -1050.411 18.551 -1048.254 21.777 -1045.876 C 25.215 -1043.34 28.996 -1040.551 33.855 -1041.528 C 33.77 -1041.551 33.688 -1041.575 33.598 -1041.594 C 33.719 -1041.579 33.836 -1041.563 33.953 -1041.547 C 34.234 -1041.61 34.52 -1041.68 34.809 -1041.766 C 34.66 -1041.672 34.512 -1041.583 34.363 -1041.497 C 35.074 -1041.407 35.777 -1041.321 36.48 -1041.231 Z M 36.48 -1041.231" fill="#000" fill-rule="evenodd"/>
  </g>
  <!-- Separator between icon and text -->
  <line x1="148" y1="5" x2="148" y2="110" stroke="#ccc" stroke-width="1"/>
  <!-- ANIMISTERIA TODESCATO bold -->
  <text x="162" y="50" font-family="'Arial Black',Arial,sans-serif" font-size="32" font-weight="900" fill="#000" letter-spacing="-0.5">ANIMISTERIA</text>
  <text x="162" y="88" font-family="'Arial Black',Arial,sans-serif" font-size="32" font-weight="900" fill="#000" letter-spacing="-0.5">TODESCATO</text>
  <!-- Right: thin vertical separator before info block -->
  <line x1="480" y1="10" x2="480" y2="105" stroke="#ddd" stroke-width="1"/>
  <!-- Subtitle -->
  <text x="494" y="30" font-family="Arial,sans-serif" font-size="9.5" font-weight="bold" letter-spacing="2.5" fill="#000">ANIME IN SHELL MOULDING</text>
  <line x1="494" y1="36" x2="836" y2="36" stroke="#555" stroke-width="1"/>
  <!-- Contact info -->
  <text x="494" y="52" font-family="Arial,sans-serif" font-size="9" fill="#333">Via Luigi Galvani 44/46 - 36066 SANDRIGO (VI)</text>
  <text x="494" y="65" font-family="Arial,sans-serif" font-size="9" fill="#333">Tel: 0444 658208   Email: info@animisteriatodescato.it</text>
  <text x="494" y="78" font-family="Arial,sans-serif" font-size="9" fill="#333">PEC: animisteriatodescatosas@cgn.legalmail.it</text>
  <text x="494" y="91" font-family="Arial,sans-serif" font-size="9" fill="#333">P.I.: 03200610248   SDI: SUBM70N</text>
</svg>